<svg width="32" height="32" viewBox="0 0 32 32" fill="black" xmlns="http://www.w3.org/2000/svg">
<path d="M24.5583 31.92C23.7836 31.92 22.7895 31.6715 21.5469 30.9405L17.176 28.3531C16.7229 28.09 15.8458 28.09 15.4072 28.3531L11.0217 30.9405C8.4343 32.4755 6.91399 31.8615 6.22692 31.3645C5.55448 30.8674 4.50196 29.5956 5.18902 26.672L6.22692 22.1841C6.34387 21.7164 6.10998 20.9123 5.75913 20.5615L2.13378 16.9361C0.321103 15.1235 0.467286 13.5739 0.715799 12.8137C0.964311 12.0536 1.7537 10.7087 4.26806 10.2847L8.93132 9.50997C9.36987 9.43688 9.99846 8.96909 10.1885 8.5744L12.776 3.41411C13.9454 1.06056 15.4803 0.709717 16.2843 0.709717C17.0883 0.709717 18.6233 1.06056 19.7927 3.41411L22.3656 8.55978C22.5702 8.95447 23.1988 9.42226 23.6374 9.49535L28.3006 10.2701C30.8296 10.6941 31.619 12.0389 31.8529 12.7991C32.0868 13.5593 32.233 15.1089 30.4349 16.9215L26.8096 20.5615C26.4587 20.9123 26.2394 21.7017 26.3418 22.1841L27.3797 26.672C28.0521 29.5956 27.0142 30.8674 26.3418 31.3645C25.9763 31.6276 25.3916 31.92 24.5583 31.92ZM16.2843 25.9557C17.0006 25.9557 17.7169 26.1311 18.287 26.4673L22.6579 29.0548C23.9297 29.8149 24.7337 29.8149 25.0407 29.5956C25.3477 29.3764 25.567 28.6016 25.2454 27.169L24.2075 22.6812C23.9297 21.4678 24.3829 19.9037 25.26 19.012L28.8854 15.3866C29.6017 14.6703 29.9233 13.9686 29.7771 13.4862C29.6163 13.0038 28.9438 12.6091 27.9498 12.4483L23.2865 11.6735C22.1609 11.4835 20.933 10.5771 20.4213 9.55383L17.8485 4.40816C17.3807 3.47259 16.796 2.91709 16.2843 2.91709C15.7727 2.91709 15.188 3.47259 14.7348 4.40816L12.1474 9.55383C11.6357 10.5771 10.4078 11.4835 9.28216 11.6735L4.63352 12.4483C3.63947 12.6091 2.96703 13.0038 2.80622 13.4862C2.64542 13.9686 2.98165 14.6849 3.69795 15.3866L7.3233 19.012C8.2004 19.8891 8.65357 21.4678 8.37582 22.6812L7.33792 27.169C7.0017 28.6162 7.23559 29.3764 7.54258 29.5956C7.84956 29.8149 8.63895 29.8003 9.92537 29.0548L14.2962 26.4673C14.8517 26.1311 15.568 25.9557 16.2843 25.9557Z" fill="#292D32"/>
</svg>
