<?xml version="1.0" encoding="UTF-8"?>
<svg id="Layer_1" data-name="Layer 1" xmlns="http://www.w3.org/2000/svg" viewBox="0 0 1921.13 1082.01">
  <defs>
    <style>
      .cls-1 {
        fill: #fff;
        stroke: gray;
        stroke-miterlimit: 10;
      }
    </style>
  </defs>
  <path class="cls-1" d="m1758.63,1081.5c10.24-38.4,26.48-85.44,53-136,35.16-67.04,76.09-116.84,109-151V245.5c-5.35,21.46-16.7,52.66-42,63-56.28,23-174.62-60.16-175-161-.34-89.27,91.94-143.15,97-146l-153-1c-100.01,122.39-103.8,200.48-91,248,20.18,74.87,84.04,83.05,170,198,63.64,85.11,118.49,158.46,105,235-16.71,94.83-123.39,109.9-320,288-50.48,45.73-88.78,85.8-112,111l-94,1c44.77-340.45,147.41-451.9,237-488,69.67-28.07,143.43-15.4,155-53,15.58-50.64-92.86-155.85-216-179-78.69-14.79-118.77,12.31-141-11-26.86-28.16-11.91-113.36,147-349h-153c34.31,54.1,31.88,87.59,25,107-31.63,89.2-239.9,113.74-392,58-112.96-41.4-180.8-121.89-212-165l-193-1c20.72,67.48,62.53,164.83,154,228,120.73,83.37,211.87,27,380,108,59.03,28.44,210.44,101.39,246,251,19.27,81.08,11.13,212.48-65,285-34.05,32.43-73.75,45.52-90,93-14.46,42.24-1.31,85.29,12,115l-192,1c248.7-342.66,202.17-447.66,179-479-19.71-26.65-48.04-34.52-281-77-256.94-46.86-288.36-49.31-326-77-66.5-48.92-131.2-160.99-101-447h-81c-181.15,29.66-227.95,62.64-230,90-2.94,39.3,86.33,68.07,79,90-7.37,22.05-109.95,29.76-178-25C2.7,103.46.73,17.17.63,1.5v241c131.41-59.49,285.87-23.61,374,85,89.83,110.71,87.95,268.68,23,356-57.3,77.03-153.27,59.95-257,149C53.43,907.36,17.43,1008.56.63,1080.5h94c27.98-54.35,77.74-129.53,164-173,96.52-48.64,141.63-8.65,256-44,176.14-54.45,180.67-183.78,314-194,106.77-8.18,228.2,65.23,237,144,4.75,42.52-24.32,77.74-50,108-97.55,114.92-239.33,148.03-316,159"/>
</svg>