<?xml version="1.0" encoding="UTF-8"?>
<svg id="Ebene_2" data-name="Ebene 2" xmlns="http://www.w3.org/2000/svg" viewBox="0 0 849.09 773.37">
  <defs>
    <style>
      .cls-1 {
        fill: #28326d;
      }

      .cls-1, .cls-2, .cls-3 {
        stroke-width: 0px;
      }

      .cls-2 {
        fill: #138b38;
      }

      .cls-3 {
        fill: #010101;
        fill-rule: evenodd;
      }
    </style>
  </defs>
  <g id="Ebene_1-2" data-name="Ebene 1">
    <g>
      <g>
        <path class="cls-2" d="m849.09,319.68v453.69h-104.66v-272.08l-96.09,272.08h-84.46l-96.7-272.73v272.73h-104.66v-453.69h123.63l120.57,314.09,119.35-314.09h123.02Z"/>
        <path class="cls-1" d="m29.08,111.48c19.39-35.11,46.42-62.47,81.11-82.08C144.87,9.81,184.19,0,228.14,0c53.85,0,99.95,14.22,138.3,42.65,38.34,28.44,63.98,67.21,76.91,116.33h-121.5c-9.05-18.95-21.87-33.38-38.45-43.3-16.59-9.91-35.44-14.86-56.55-14.86-34.04,0-61.62,11.86-82.72,35.55-21.12,23.7-31.67,55.37-31.67,95s10.55,71.31,31.67,95c21.11,23.7,48.68,35.55,82.72,35.55,21.11,0,39.96-4.95,56.55-14.86,16.58-9.91,29.41-24.34,38.45-43.3h121.5c-12.93,49.12-38.56,87.79-76.91,116.01-38.35,28.22-84.45,42.33-138.3,42.33-43.95,0-83.27-9.8-117.95-29.41-34.69-19.6-61.72-46.86-81.11-81.75C9.69,316.03,0,276.18,0,231.37s9.69-84.76,29.08-119.89Z"/>
      </g>
      <g>
        <path class="cls-3" d="m490.16,566.13c-11.73-3.06-22.82-9.17-31.99-18.36l-70.48-70.48c-13.76-13.75-20.64-31.81-20.64-49.86s6.88-36.1,20.64-49.85c6.95-6.95,14.99-12.14,23.58-15.58,0,0,11.05,11.1,11.05,11.1-9.04,2.52-17.57,7.35-24.66,14.45-22.03,22.03-22.04,57.74,0,79.77l70.48,70.48c4.77,4.77,10.18,8.5,15.95,11.21"/>
        <g>
          <g>
            <path class="cls-3" d="m561.38,516.26c6.76-19.74,2.26-42.48-13.47-58.21l-54.16-54.17.13-4.7c0-5.7-.56-11.31-1.65-16.77l65.65,65.67c13.76,13.75,20.5,31.8,20.64,49.85.1,12.6-3.22,25.17-10.16,36.5"/>
            <path class="cls-3" d="m272.46,352.62c-2.77-7.72-4.16-15.82-4.16-23.93,0-18.03,6.88-36.1,20.64-49.85,27.51-27.51,72.18-27.51,99.71,0l70.48,70.49c13.76,13.75,20.64,31.8,20.64,49.85s-6.88,36.1-20.64,49.85c-6.98,6.97-15.05,12.17-23.66,15.61,0,0-11.07-11.11-11.07-11.11,9.07-2.51,17.63-7.35,24.76-14.47,22.04-22.03,22.01-57.76,0-79.75l-70.48-70.49c-22.03-22.04-57.74-22.04-79.77,0-15.44,15.44-20.06,37.61-13.86,57.07"/>
          </g>
          <path class="cls-3" d="m352.96,428.75c.08,5.25.64,10.41,1.64,15.45l-10.32-10.32"/>
        </g>
      </g>
    </g>
  </g>
</svg>