<svg width="268" height="32" viewBox="0 0 268 32" fill="none" xmlns="http://www.w3.org/2000/svg">
<g clip-path="url(#clip0_5_2)">
<path d="M0.711761 15.9127C0.711761 12.8873 1.36542 10.1963 2.67274 7.83999C3.98005 5.45453 5.79577 3.60726 8.11989 2.29817C10.4731 0.959986 13.1313 0.290894 16.0945 0.290894C19.726 0.290894 22.8345 1.2509 25.4201 3.17089C28.0056 5.09089 29.7342 7.70908 30.6057 11.0254H22.4132C21.8031 9.74544 20.9316 8.7709 19.7986 8.1018C18.6946 7.43271 17.4309 7.09817 16.0074 7.09817C13.7123 7.09817 11.853 7.89817 10.4295 9.49817C9.00596 11.0982 8.2942 13.2363 8.2942 15.9127C8.2942 18.5891 9.00596 20.7273 10.4295 22.3273C11.853 23.9273 13.7123 24.7273 16.0074 24.7273C17.4309 24.7273 18.6946 24.3927 19.7986 23.7236C20.9316 23.0545 21.8031 22.08 22.4132 20.8H30.6057C29.7342 24.1163 28.0056 26.7345 25.4201 28.6545C22.8345 30.5454 19.726 31.4909 16.0945 31.4909C13.1313 31.4909 10.4731 30.8363 8.11989 29.5273C5.79577 28.1891 3.98005 26.3418 2.67274 23.9854C1.36542 21.6291 0.711761 18.9382 0.711761 15.9127ZM46.2377 31.6218C43.8555 31.6218 41.7057 31.1127 39.7883 30.0945C37.8999 29.0763 36.4038 27.6218 35.2998 25.7309C34.2249 23.84 33.6875 21.6291 33.6875 19.0982C33.6875 16.5963 34.2394 14.4 35.3434 12.5091C36.4473 10.5891 37.958 9.11999 39.8754 8.1018C41.7928 7.08362 43.9426 6.57453 46.3249 6.57453C48.7071 6.57453 50.8569 7.08362 52.7743 8.1018C54.6917 9.11999 56.2024 10.5891 57.3063 12.5091C58.4103 14.4 58.9622 16.5963 58.9622 19.0982C58.9622 21.6 58.3957 23.8109 57.2627 25.7309C56.1588 27.6218 54.6336 29.0763 52.6871 30.0945C50.7697 31.1127 48.6199 31.6218 46.2377 31.6218ZM46.2377 25.1636C47.6612 25.1636 48.8669 24.64 49.8546 23.5927C50.8714 22.5454 51.3798 21.0473 51.3798 19.0982C51.3798 17.1491 50.8859 15.6509 49.8982 14.6036C48.9395 13.5563 47.7484 13.0327 46.3249 13.0327C44.8723 13.0327 43.6666 13.5563 42.7079 14.6036C41.7492 15.6218 41.2699 17.12 41.2699 19.0982C41.2699 21.0473 41.7347 22.5454 42.6644 23.5927C43.6231 24.64 44.8142 25.1636 46.2377 25.1636ZM77.7316 6.6618C80.5787 6.6618 82.8447 7.59271 84.5297 9.45453C86.2437 11.2873 87.1007 13.8182 87.1007 17.0473V31.2727H79.6926V18.0509C79.6926 16.4218 79.2713 15.1563 78.4289 14.2545C77.5864 13.3527 76.4534 12.9018 75.0298 12.9018C73.6063 12.9018 72.4735 13.3527 71.631 14.2545C70.7885 15.1563 70.3673 16.4218 70.3673 18.0509V31.2727H62.9156V6.92362H70.3673V10.1527C71.1226 9.07635 72.1394 8.23271 73.4175 7.6218C74.6957 6.9818 76.1338 6.6618 77.7316 6.6618ZM107.095 6.6618C109.942 6.6618 112.208 7.59271 113.893 9.45453C115.607 11.2873 116.465 13.8182 116.465 17.0473V31.2727H109.056V18.0509C109.056 16.4218 108.635 15.1563 107.793 14.2545C106.95 13.3527 105.817 12.9018 104.394 12.9018C102.97 12.9018 101.837 13.3527 100.995 14.2545C100.152 15.1563 99.7309 16.4218 99.7309 18.0509V31.2727H92.2791V6.92362H99.7309V10.1527C100.486 9.07635 101.503 8.23271 102.781 7.6218C104.06 6.9818 105.498 6.6618 107.095 6.6618ZM144.565 18.7054C144.565 19.4036 144.521 20.1309 144.434 20.8873H127.569C127.686 22.4 128.165 23.5636 129.008 24.3782C129.879 25.1636 130.939 25.5563 132.189 25.5563C134.048 25.5563 135.341 24.7709 136.067 23.2H143.998C143.591 24.8 142.851 26.24 141.776 27.52C140.73 28.8 139.408 29.8036 137.81 30.5309C136.212 31.2582 134.426 31.6218 132.45 31.6218C130.068 31.6218 127.947 31.1127 126.088 30.0945C124.229 29.0763 122.776 27.6218 121.73 25.7309C120.684 23.84 120.161 21.6291 120.161 19.0982C120.161 16.5673 120.67 14.3563 121.687 12.4654C122.732 10.5745 124.185 9.11999 126.044 8.1018C127.904 7.08362 130.039 6.57453 132.45 6.57453C134.803 6.57453 136.895 7.06908 138.725 8.05817C140.555 9.04726 141.979 10.4582 142.996 12.2909C144.042 14.1236 144.565 16.2618 144.565 18.7054ZM136.939 16.7418C136.939 15.4618 136.503 14.4436 135.631 13.6873C134.76 12.9309 133.67 12.5527 132.363 12.5527C131.114 12.5527 130.053 12.9163 129.182 13.6436C128.339 14.3709 127.816 15.4036 127.613 16.7418H136.939ZM147.014 19.0982C147.014 16.5673 147.522 14.3563 148.539 12.4654C149.585 10.5745 151.023 9.11999 152.853 8.1018C154.712 7.08362 156.833 6.57453 159.215 6.57453C162.266 6.57453 164.808 7.37453 166.841 8.97453C168.904 10.5745 170.255 12.8291 170.894 15.7382H162.963C162.295 13.8763 161.002 12.9454 159.085 12.9454C157.719 12.9454 156.63 13.4836 155.816 14.56C155.003 15.6073 154.596 17.12 154.596 19.0982C154.596 21.0763 155.003 22.6036 155.816 23.68C156.63 24.7273 157.719 25.2509 159.085 25.2509C161.002 25.2509 162.295 24.32 162.963 22.4582H170.894C170.255 25.3091 168.904 27.5491 166.841 29.1782C164.779 30.8073 162.237 31.6218 159.215 31.6218C156.833 31.6218 154.712 31.1127 152.853 30.0945C151.023 29.0763 149.585 27.6218 148.539 25.7309C147.522 23.84 147.014 21.6291 147.014 19.0982ZM188.432 24.9454V31.2727H184.641C181.939 31.2727 179.833 30.6182 178.322 29.3091C176.812 27.9709 176.056 25.8036 176.056 22.8073V13.12H173.093V6.92362H176.056V0.989077H183.508V6.92362H188.389V13.12H183.508V22.8945C183.508 23.6218 183.682 24.1454 184.031 24.4654C184.38 24.7854 184.961 24.9454 185.774 24.9454H188.432Z" fill="#172678"/>
<path d="M196.069 31.6218C194.762 31.6218 193.687 31.2436 192.845 30.4873C192.031 29.7018 191.624 28.7418 191.624 27.6073C191.624 26.4436 192.031 25.4691 192.845 24.6836C193.687 23.8982 194.762 23.5055 196.069 23.5055C197.347 23.5055 198.393 23.8982 199.207 24.6836C200.049 25.4691 200.471 26.4436 200.471 27.6073C200.471 28.7418 200.049 29.7018 199.207 30.4873C198.393 31.2436 197.347 31.6218 196.069 31.6218Z" fill="black"/>
<path d="M239.526 0.639984V31.2727H232.074V12.9018L225.233 31.2727H219.219L212.334 12.8582V31.2727H204.882V0.639984H213.685L222.269 21.8473L230.767 0.639984H239.526ZM267.806 18.7054C267.806 19.4036 267.763 20.1309 267.675 20.8873H250.811C250.927 22.4 251.407 23.5636 252.249 24.3782C253.121 25.1636 254.181 25.5563 255.43 25.5563C257.289 25.5563 258.582 24.7709 259.309 23.2H267.24C266.833 24.8 266.092 26.24 265.017 27.52C263.971 28.8 262.649 29.8036 261.052 30.5309C259.454 31.2582 257.667 31.6218 255.692 31.6218C253.309 31.6218 251.189 31.1127 249.329 30.0945C247.47 29.0763 246.017 27.6218 244.972 25.7309C243.926 23.84 243.403 21.6291 243.403 19.0982C243.403 16.5673 243.911 14.3563 244.928 12.4654C245.974 10.5745 247.426 9.11998 249.286 8.1018C251.145 7.08362 253.28 6.57453 255.692 6.57453C258.045 6.57453 260.136 7.06908 261.967 8.05817C263.797 9.04726 265.22 10.4582 266.237 12.2909C267.283 14.1236 267.806 16.2618 267.806 18.7054ZM260.18 16.7418C260.18 15.4618 259.744 14.4436 258.873 13.6873C258.001 12.9309 256.912 12.5527 255.604 12.5527C254.355 12.5527 253.295 12.9163 252.423 13.6436C251.581 14.3709 251.058 15.4036 250.855 16.7418H260.18Z" fill="#128A34"/>
</g>
<defs>
<clipPath id="clip0_5_2">
<rect width="268" height="32" fill="white"/>
</clipPath>
</defs>
</svg>
